<svg xmlns="http://www.w3.org/2000/svg">
 <symbol id="home" viewBox="0 0 36 36"><path d="m29.8,14.7l-9,-9.2c-2.6,-2.8 -5.1,0 -5.1,0l-7.3,7.2c-5.5,5.3 -2.7,6.5 -1.7,6.7l0,10.1c0,1.9 1.6,3.5 3.5,3.5l4.7,0l0,-8.1c0,0 -0.3,-0.9 1.6,-0.9c1.9,0 4,0 4,0s0.9,-0.1 0.9,1.1s0.1,7.9 0.1,7.9l4.5,0c1.9,0 3.5,-1.6 3.5,-3.5l0,-10.7c3,-0.4 0.3,-4.1 0.3,-4.1zm-1.8,-10.6c0,0 0.2,-1.1 -1.2,-1.1l-3,0c0,0 -1.1,-0.3 -1.1,0.9c0,1.2 0,1.8 0,1.8l5.3,5l0,-6.6z"/></symbol>
 <symbol id="blog" viewBox="0 0 72 72"><path d="M58.2,7.2H15c-5.6,0-10.2,4.6-10.2,10.3v24.8C4.8,48,9.3,52.6,15,52.6h8L23,66.1l18.6-13.5h16.6 c5.6,0,10.2-4.6,10.2-10.3V17.5C68.3,11.8,63.8,7.2,58.2,7.2z M59.2,39.1H27.6v-4.5h31.7V39.1z M59.3,30H27.5v-4.5h31.8V30z"/></symbol>
 <symbol id="dashboard" viewBox="0 0 36 36"><path d="m23.9,14.45l-7.5,-9.5l-13.4,13.6l0.1,5.2c0,0 0.1,0 0.1,0c1.3,-0.6 3.1,-1.4 4.8,-2.2c3.5,-1.6 6.9,-3.3 6.9,-3.3l0.5,-0.2l6.3,6.2l11.3,-4.3l0,-16.1l-9.1,10.6zm-8.9,5.3c-1.7,0.8 -7.4,3.5 -10.8,5.1c-0.4,0.2 -0.8,0.3 -1.1,0.5l0.1,6.8l29.8,0l0,-10.6l-11.8,4.3l-6.2,-6.1z"/></symbol>
 <symbol id="datasource1" viewBox="0 0 36 36"><path d="m3,32.7l9.1,0l0,-19.2l-9.1,0l0,19.2zm10.4,0l9.1,0l0,-29.4l-9.1,0l0,29.4zm10.5,-16.4l0,16.4l9.1,0l0,-16.4l-9.1,0z"/></symbol>
 <symbol id="datasource2" viewBox="0 0 36 36"><path d="m4.8,10.95c-1.1,2.1 -1.8,4.5 -1.8,7c0,8 6.2,14.5 14.1,15l-0.1,-14.3l-12.2,-7.7zm13.2,-7.9c-5.1,0 -9.5,2.5 -12.3,6.4l12.2,8l12.3,-7.9c-2.6,-4 -7.1,-6.5 -12.2,-6.5zm13.2,7.9l-12.2,7.7l0,14.3c7.8,-0.5 14,-7 14,-15c0,-2.5 -0.6,-4.9 -1.8,-7z"/></symbol>
 <symbol id="datasource3" viewBox="0 0 36 36"><path d="m10,2.95l-7.5,0l0,7.5l7.5,0l0,-7.5zm20.6,0l0,3.8l-1.9,0l0,-3.8l-1.9,0l0,1.9l-1.9,0l0,-1.9l-1.9,0l0,3.8l-1.9,0l0,-3.8l-1.9,0l0,1.9l-1.9,0l0,-1.9l-1.9,0l0,3.8l-1.9,0l0,-3.8l-1.7,0l0,7.5l18.8,0l0,20.6l-20.6,0l0,-18.7l-7.5,0l0,1.9l3.7,0l0,1.9l-3.7,0l0,1.9l1.9,0l0,1.9l-1.9,0l0,1.9l3.7,0l0,1.9l-3.7,0l0,1.9l1.9,0l0,1.9l-1.9,0l0,1.7l3.7,0l0,1.9l-3.7,0l0,1.9l30,0l0,-30l-1.9,0l0,-0.1z"/></symbol>
 <symbol id="documents" viewBox="0 0 36 36"><path d="m15.7,8.45l-11.2,0c-0.9,0 -1.5,0.6 -1.5,1.5l0,20.5c0,0.8 0.7,1.5 1.5,1.5l14.4,0c0.8,0 1.5,-0.7 1.5,-1.5l0,-17.7l-4,0l-0.7,-4.3zm17.3,0.1l-0.5,-0.5l0,0l-4.2,-4l-2.3,0l0,0l-9.2,0c-1,0 -1.8,0.8 -1.8,1.8l0,1.3l6.1,5.3l0,15.6l10,0c1,0 1.7,-0.8 1.8,-1.7l0,-17.5l0,0l0,-0.3l0.1,0zm-4.1,-0.1l-0.5,-3.6l3.8,3.6l-3.3,0z"/></symbol>
 <symbol id="locations" viewBox="0 0 36 36"><path d="m17.99922,2.99844c-8.3,0 -15,6.7 -15,15c0,8.3 6.7,15 15,15c8.3,0 15,-6.7 15,-15c0,-8.3 -6.7,-15 -15,-15zm-1.8,25.4l0,-9.3l-9.3,0.3l18.7,-9.6l-9.4,18.6z"/></symbol>
 <symbol id="login" viewBox="0 0 36 36"><path d="m18,3c-8.3,0 -15,6.7 -15,15c0,8.3 6.7,15 15,15c8.3,0 15,-6.7 15,-15c0,-8.3 -6.8,-15 -15,-15zm0,23.1l-4.5,0l2.3,-8.1c-1.3,-0.8 -2.2,-2.2 -2.2,-3.8c0,-2.4 2,-4.4 4.4,-4.4c2.4,0 4.4,2 4.4,4.4c0,1.6 -0.9,3.1 -2.2,3.8l2.2,8l-4.4,0.1z"/></symbol>
 <symbol id="maps" viewBox="0 0 36 36"><path d="m18,3c-8.3,0 -15,6.7 -15,15s6.7,15 15,15s15,-6.7 15,-15s-6.7,-15 -15,-15zm0.5,5.4c0.3,0.5 0.1,1.5 -1.4,2l-1.9,-3.6c0.1,-0.1 2.6,-0.8 3.3,1.6zm-4.1,22c-1,0.1 -2.3,0.3 -2.6,-3.6c-0.5,-0.8 -1.4,-1.1 -2.4,-1.3c-0.9,-0.2 -1.1,-2.1 0,-3.6c-0.9,-1 -4.9,-4.5 -4.1,-7.9c0.8,-2.7 2.2,-6.2 6.9,-8.4c1.9,1.8 3.1,2.8 0.6,4.1c-1,0.6 -1.3,2 0,2.2c0,0 0.3,-1.3 1,-0.9c0.8,0.3 2.5,2.1 1.2,2.2c-1.4,0.1 -1.9,0.7 -2.5,1.4c-0.6,0.8 -1.7,2.7 -2.5,2.8c-0.7,0.2 -0.6,-1.1 -1.3,-1.1c-0.7,0 -1.4,0 -1,2.1c0.4,1.2 4.1,3.9 12.2,6.4c0,0.5 -1,5.2 -5.5,5.6zm14.5,-9.4c0,0 -0.2,0.2 -0.7,0.4c-0.5,0.3 -5,1.6 -4.8,-2.3c0.3,-0.9 2.7,-5.8 -1.9,-7.8c0.5,-0.9 2.1,-1.2 2.1,-1.2l-2.9,-4.6c0,0 9,1.1 10,10.4c0,1.4 -0.1,5.2 -0.9,7.4c-0.7,-1.6 -0.9,-2.3 -0.9,-2.3z"/></symbol>
 <symbol id="organization" viewBox="0 0 36 36"><path d="m3,7.45l0,21.1l30,0l0,-21.1l-30,0zm8.3,3.4c1.7,0 3.1,1.4 3.1,3.1c0,1.7 -1.4,3.1 -3.1,3.1s-3.1,-1.4 -3.1,-3.1c-0.1,-1.7 1.3,-3.1 3.1,-3.1zm4.6,12.7l-9.6,0l0,-0.6c0,-2.6 2.1,-4.8 4.8,-4.8c2.6,0 4.8,2.1 4.8,4.8l0,0.6zm13.3,1.2l-10,0l0,-1.2l10,0l0,1.2zm0,-2.5l-10,0l0,-1.2l10,0l0,1.2zm0,-2.5l-10,0l0,-1.2l10,0l0,1.2zm0,-2.5l-10,0l0,-1.2l10,0l0,1.2zm0,-2.5l-10,0l0,-1.2l10,0l0,1.2zm0,-2.5l-10,0l0,-1.2l10,0l0,1.2z"/></symbol>
 <symbol id="reports" viewBox="0 0 36 36"><path d="m20.2,12.2c-0.9,-0.4 -0.4,-7.3 -0.5,-9.2l-10.2,0c-1.5,0 -2.7,1.2 -2.7,2.7l0,24.6c0,1.5 1.2,2.7 2.7,2.7l17,0c1.5,0 2.7,-1.2 2.7,-2.7l0,-17.6c-0.2,-0.4 -8.1,0.1 -9,-0.5zm-8.7,3.3l12.6,0c0.6,0 1.1,0.5 1.1,1.1c0,0.6 -0.5,0.9 -1.1,0.9l-12.6,0c-0.6,0 -1.1,-0.3 -1.1,-0.9c0,-0.6 0.5,-1.1 1.1,-1.1zm7,10.7l-7,0c-0.7,0 -1.2,-0.5 -1.2,-1.2c0,-0.7 0.5,-1 1.2,-1l7,0c0.7,0 1.2,0.3 1.2,1c0,0.6 -0.5,1.2 -1.2,1.2zm5.7,-4.2l-12.7,0c-0.7,0 -1.2,-0.5 -1.2,-1.2c0,-0.7 0.5,-1 1.2,-1l12.7,0c0.7,0 1.2,0.3 1.2,1c0,0.7 -0.5,1.2 -1.2,1.2zm4.8,-10.5l-8,-8.4l0,7.9l0.8,0.6l7.2,-0.1z"/></symbol>
 <symbol id="sector" viewBox="0 0 36 36"><path d="m18,3.05c-6.1,0 -11.1,5 -11.1,11.1c0,4.5 2.7,8.4 6.6,10.1l4.5,8.7l0,0l0,0l0,0l0,0l4.5,-8.7c3.9,-1.7 6.6,-5.6 6.6,-10.1c-0.1,-6.1 -5,-11.1 -11.1,-11.1zm2,4.6c0,-0.5 0.5,-0.4 0.5,-0.4l1.3,0c0.6,0 0.5,0.5 0.5,0.5l0,2.8l-2.3,-2.2c0,0 0,-0.2 0,-0.7zm3,6.6l0,4.7c0,0.9 -0.7,1.6 -1.6,1.6l-2,0c0,0 0,-3 0,-3.5c0,-0.5 -0.4,-0.5 -0.4,-0.5s-0.9,0 -1.8,0c-0.9,0 -0.7,0.4 -0.7,0.4l0,3.6l-2.1,0c-0.9,0 -1.6,-0.7 -1.6,-1.6l0,-4.5c-0.5,-0.1 -1.7,-0.6 0.7,-3l3.2,-3.2c0,0 1.1,-1.2 2.2,0l4,4.1c0.3,0 1.5,1.7 0.1,1.9z"/></symbol>

 <symbol id="arrow" viewBox="0 0 36 36"><path d="m4.8,21.89l10,10c1.5,1.5 3.8,1.5 5.3,0l10.7,-10.7c1.5,-1.5 1.5,-3.8 0,-5.3c-0.7,-0.7 -1.7,-1.1 -2.6,-1.1c-1,0 -1.9,0.4 -2.6,1.1l-3.9,3.9l0,-13.1c0,-2.1 -1.7,-3.7 -3.7,-3.7c-2.1,0 -3.7,1.7 -3.7,3.7l0,13.8l-3.9,-3.9c-1.5,-1.5 -3.8,-1.5 -5.3,0c-1.8,1.4 -1.8,3.8 -0.3,5.3z"/></symbol>
 <symbol id="gear" viewBox="0 0 240 160"><path d="m79.91,102.82c-12.60,0 -22.83,-10.21 -22.83,-22.82c0,-12.61 10.22,-22.82 22.83,-22.82c12.60,0 22.83,10.21 22.83,22.82c0,12.61 -10.22,22.82 -22.83,22.82zm42.40,-22.82c0,-6.53 4.02,-11.72 10.09,-15.28c-1.09,-3.63 -2.54,-7.15 -4.32,-10.44c-6.80,1.77 -12.31,-0.88 -16.94,-5.49c-4.62,-4.64 -6.04,-10.13 -4.26,-16.94c-3.29,-1.77 -6.79,-3.25 -10.45,-4.33c-3.55,6.07 -9.96,10.09 -16.51,10.09c-6.54,0 -12.96,-4.02 -16.51,-10.09c-3.65,1.08 -7.15,2.55 -10.44,4.33c1.77,6.81 0.36,12.30 -4.26,16.94c-4.62,4.60 -10.14,7.27 -16.94,5.49c-1.78,3.28 -3.23,6.81 -4.32,10.44c6.07,3.55 10.09,8.74 10.09,15.28c0,6.53 -4.02,12.96 -10.09,16.52c1.09,3.63 2.54,7.15 4.32,10.44c6.80,-1.77 12.31,-0.34 16.94,4.25c4.62,4.64 6.04,10.13 4.26,16.94c3.29,1.77 6.79,3.21 10.45,4.33c3.55,-6.07 9.96,-10.09 16.51,-10.09c6.54,0 12.96,4.02 16.51,10.09c3.65,-1.12 7.15,-2.55 10.45,-4.33c-1.77,-6.80 -0.36,-12.30 4.26,-16.94c4.62,-4.60 10.13,-7.31 16.94,-5.49c1.78,-3.32 3.23,-6.80 4.32,-10.44c-6.06,-3.55 -10.09,-8.74 -10.09,-15.28"/><path d="m180.28,106.60c1.61,0 2.76,-1.63 2.76,-1.63l28.56,-45.47c2.19,-3.35 0.57,-6.10 -3.61,-6.10l-55.43,0c-4.19,0 -5.81,2.75 -3.60,6.10l28.56,45.47c0,0 1.15,1.63 2.76,1.63"/></symbol>

 <symbol id="add" viewBox="0 0 128 128"><path d="m96.50,57.74l-26.24,0l0,-26.24c0,-3.46 -2.79,-3.74 -6.25,-3.74c-3.44,0 -6.24,0.28 -6.24,3.74l0,26.24l-26.24,0c-3.45,0 -3.74,2.78 -3.74,6.24c0,3.45 0.29,6.25 3.74,6.25l26.24,0l0,26.24c0,3.44 2.80,3.74 6.24,3.74c3.45,0 6.25,-0.30 6.25,-3.74l0,-26.24l26.24,0c3.45,0 3.74,-2.80 3.74,-6.25c0,-3.45 -0.29,-6.24 -3.74,-6.24"/></symbol>
 <symbol id="delete" viewBox="0 0 16 16"><path d="m 13.8,2.25 H 10 V 1.95 C 10,1.65 9.8,1.45 9.5,1.45 h -3 C 6.2,1.45 6,1.65 6,1.95 v 0.3 H 2.2 c -0.2,0 -0.4,0.3 -0.4,0.5 v 0.3 c 0,0.3 0.2,0.5 0.5,0.5 h 0.9 v 10.1 c 0,0.5 0.4,0.9 0.9,0.9 h 7.8 c 0.5,0 0.9,-0.4 0.9,-0.9 V 3.55 h 0.9 c 0.3,0 0.5,-0.2 0.5,-0.5 v -0.3 c 0,-0.2 -0.2,-0.5 -0.4,-0.5 z m -1.9,11.4 H 4.1 v -10 h 7.7 v 10 z m -4,-0.5 H 8 c 0.3,0 0.5,-0.2 0.5,-0.5 V 4.55 C 8.5,4.25 8.3,4.05 8,4.05 H 7.9 c -0.3,0 -0.5,0.2 -0.5,0.5 v 8.1 c 0,0.3 0.3,0.5 0.5,0.5 z m 2.2,0 h 0.1 c 0.3,0 0.5,-0.2 0.5,-0.5 v -8.1 c 0,-0.3 -0.2,-0.5 -0.5,-0.5 h -0.1 c -0.3,0 -0.5,0.2 -0.5,0.5 v 8.1 c 0,0.3 0.2,0.5 0.5,0.5 z m -4.3,0 h 0.1 c 0.3,0 0.5,-0.2 0.5,-0.5 V 4.55 C 6.4,4.25 6.2,4.05 5.9,4.05 H 5.8 c -0.3,0 -0.5,0.2 -0.5,0.5 v 8.1 c 0,0.3 0.2,0.5 0.5,0.5 z"/></symbol>
 <symbol id="edit" viewBox="0 0 16 16"><path fill-rule="evenodd" d="m 1.283,13.389 c 0.5,0.2 1.1,0.8 1.3,1.3 -0.2,0.1 -0.5,0.2 -0.7,0.2 -1.1,0.2 -0.8,-1 -0.6,-1.5 z m 2.6,-3.2 c 0.1,0.5 0.2,1 0.3,1.5 0.5,0.1 1.1,0.2 1.6,0.3 0,0.5 0,1 0.1,1.5 -0.8,0.3 -1.6,0.5 -2.5,0.8 -0.4,-0.7 -1.1,-1.6 -1.9,-1.8 0.3,-0.8 0.5,-1.5 0.8,-2.3 0.5876,0.0825 1.0980434,0.04676 1.6,0 z M 14.683,3.789 c 0.1,0.2 0.3,0.7 0.2,0.9 -2.7,2.8 -5.5,5.5 -8.2,8.3 l 0,0 c 0,-0.3 0,-0.7 -0.1,-1 2.7,-2.8 5.4,-5.5 8.1,-8.2 z m -1.9,-2.1 c 0.5,0.4 1,0.9 1.5,1.3 -2.791,2.791 -5.721,5.721 -8.3,8.3 -0.3,0 -1,-0.1 -1.2,-0.3 0,-0.3 -0.1,-0.7 -0.2,-1.1 2.8,-2.7 5.5,-5.4 8.2,-8.2 z m -1.6,-0.6 c 0.3,0 0.7,0.1 0.9,0.2 -2.7,2.7 -5.4,5.4 -8.1,8.1 l 0,0 c -0.4,0 -0.8,0 -1.1,0.1 2.7,-2.8 5.5,-5.6 8.3,-8.4 z "/></symbol>
 <symbol id="translate" viewBox="0 0 50 50"><path d="m42.2,19.4l0,0c0.1,0 0.1,0 0,0zm-17.8,0c0,-7.4 -0.1,-13.2 -0.1,-17.8h-14.1c-2,0 -3.6,1.6 -3.6,3.7v39c0,2 1.6,3.7 3.6,3.7h28.4c2,0 3.6,-1.6 3.6,-3.7c0,0 -0.1,-24.8 0,-24.9c-1.2,0 -17.8,0.2 -17.8,0zm4.7,21.6h-15.3l0,2l-3.9,-4l4,-3.4l0,1.9h15.3l-0.1,3.5zm0.9,-5.8l0,-1.3h-15.3v-3.6h15.3l0,-1.5l4.4,3l-4.4,3.4zm-2.3,-33.6v14.3h14.3l-14.3,-14.3z"/></symbol>
 <symbol id="view" viewBox="0 0 160 160"><path d="m 140.22,126.37 -29.21,-27.08 c -2.43,-2.26 -5.91,-2.72 -8.74,-1.45 l -4.80,-4.45 c 6.37,-7.80 10.17,-17.73 10.17,-28.56 0,-24.97 -20.25,-45.22 -45.22,-45.22 -24.97,0 -45.22,20.25 -45.22,45.22 0,24.97 20.25,45.22 45.22,45.22 11.69,0 22.35,-4.45 30.37,-11.71 l 5.02,4.67 c -0.83,2.83 -0.08,6.04 2.24,8.18 l 29.21,27.08 c 3.26,3.02 8.37,2.83 11.42,-0.43 2.99,-3.29 2.80,-8.39 -0.45,-11.44 z M 62.38,96.73 c -17.63,0 -31.94,-14.31 -31.94,-31.94 0,-17.63 14.31,-31.94 31.94,-31.94 17.63,0 31.94,14.31 31.94,31.94 0,17.63 -14.31,31.94 -31.94,31.94 z" /></symbol>
</svg>
