<?xml version="1.0" encoding="utf-8"?>
<!-- Generator: Adobe Illustrator 21.0.0, SVG Export Plug-In . SVG Version: 6.00 Build 0)  -->
<svg version="1.1" id="Layer_1" xmlns="http://www.w3.org/2000/svg" xmlns:xlink="http://www.w3.org/1999/xlink" x="0px" y="0px"
	 viewBox="0 0 1792 1792" style="enable-background:new 0 0 1792 1792;" xml:space="preserve">
<style type="text/css">
	.st0{fill:none;enable-background:new    ;}
	.st1{fill:none;}
	.st2{fill:#90C845;}
	.st3{fill:#FFFFFF;}
</style>
<path class="st0" d="z"/>
<g>
	<path class="st1" d="M471.1,532.6h847.8c11.5,0,21.4-5.9,29.8-17.8c8.4-11.9,12.6-26,12.6-42.2V232.3c0-16.3-4.2-30.4-12.6-42.2
		c-8.4-11.9-18.3-17.8-29.8-17.8H471.1c-11.5,0-21.4,5.9-29.8,17.8c-8.4,11.9-12.6,26-12.6,42.2v240.3c0,16.3,4.2,30.4,12.6,42.2
		C449.7,526.7,459.6,532.6,471.1,532.6z"/>
	<path class="st2" d="M1420.9,87.7c-16.8-23.8-36.7-35.7-59.6-35.7H428.7c-23,0-42.8,11.9-59.6,35.7c-16.8,23.8-25.2,51.9-25.2,84.5
		V1614c0,32.5,8.4,60.7,25.2,84.5c16.8,23.8,36.7,35.7,59.6,35.7h932.6c23,0,42.8-11.9,59.6-35.7c16.8-23.8,25.2-51.9,25.2-84.5
		V172.2C1446.1,139.6,1437.7,111.5,1420.9,87.7z M428.7,232.3c0-16.3,4.2-30.4,12.6-42.2c8.4-11.9,18.3-17.8,29.8-17.8h847.8
		c11.5,0,21.4,5.9,29.8,17.8c8.4,11.9,12.6,26,12.6,42.2v240.3c0,16.3-4.2,30.4-12.6,42.2c-8.4,11.9-18.3,17.8-29.8,17.8H471.1
		c-11.5,0-21.4-5.9-29.8-17.8c-8.4-11.9-12.6-26-12.6-42.2V232.3z M1407.3,1639.2H402.5V634.4h1004.8V1639.2z"/>
	<rect x="402.5" y="634.4" class="st2" width="1004.8" height="1004.8"/>
</g>
<rect x="428.7" y="658.4" class="st3" width="932.6" height="96"/>
<rect x="428.7" y="868.4" class="st3" width="932.6" height="90"/>
<rect x="438.5" y="1088.8" class="st3" width="932.6" height="96"/>
<rect x="431.7" y="1315.3" class="st3" width="932.6" height="96"/>
<rect x="428.7" y="1519.2" class="st3" width="932.6" height="96"/>
<rect x="580.4" y="658.4" class="st3" width="78" height="956.8"/>
<rect x="865.9" y="658.4" class="st3" width="78" height="956.8"/>
<rect x="1141.4" y="658.4" class="st3" width="78" height="956.8"/>
</svg>
