<?xml version="1.0" encoding="utf-8"?>
<!-- Generator: Adobe Illustrator 21.0.0, SVG Export Plug-In . SVG Version: 6.00 Build 0)  -->
<svg version="1.1" id="Layer_1" xmlns="http://www.w3.org/2000/svg" x="0px" y="0px"
     viewBox="0 0 1792 1792" style="enable-background:new 0 0 1792 1792;" xml:space="preserve">
<style type="text/css">
	.st0{fill:none;enable-background:new    ;}
	.st1{fill:#2B9FF6;}
</style>
<path class="st0" d="M0,0"/>
<path class="st1" d="M1403,639.5c11.3,27.3,6.7,50.7-14,70l-448,448c-12,12.7-27,19-45,19s-33-6.3-45-19l-448-448
	c-20.7-19.3-25.3-42.7-14-70c11.3-26,31-39,59-39h256v-448c0-17.3,6.3-32.3,19-45s27.7-19,45-19h256c17.3,0,32.3,6.3,45,19
	s19,27.7,19,45v448h256C1372,600.5,1391.7,613.5,1403,639.5z"/>
<rect x="156.5" y="1281.3" class="st1" width="1481.7" height="317.9"/>
</svg>
