<?xml version="1.0" encoding="utf-8"?>
<!-- Generator: Adobe Illustrator 21.0.0, SVG Export Plug-In . SVG Version: 6.00 Build 0)  -->
<svg version="1.1" id="Layer_1" xmlns="http://www.w3.org/2000/svg" x="0px" y="0px"
     viewBox="0 0 1792 1792" style="enable-background:new 0 0 1792 1792;" xml:space="preserve">
<style type="text/css">
	.st0{fill:none;enable-background:new    ;}
	.st1{fill:#90C845;}
</style>
<path class="st0" d="z"/>
<g>
	<path class="st1" d="M1181,1433.5v-178.1c0-10.4-3.3-18.9-10-25.6s-15.2-10-25.6-10h-106.9v-570c0-10.4-3.3-18.9-10-25.6
		s-15.2-10-25.6-10H646.6c-10.4,0-18.9,3.3-25.6,10s-10,15.2-10,25.6v178.1c0,10.4,3.3,18.9,10,25.6s15.2,10,25.6,10h106.9v356.3
		H646.6c-10.4,0-18.9,3.3-25.6,10s-10,15.2-10,25.6v178.1c0,10.4,3.3,18.9,10,25.6s15.2,10,25.6,10h498.8c10.4,0,18.9-3.3,25.6-10
		S1181,1443.9,1181,1433.5z M1038.5,435.9V257.8c0-10.4-3.3-18.9-10-25.6s-15.2-10-25.6-10H789.1c-10.4,0-18.9,3.3-25.6,10
		s-10,15.2-10,25.6v178.1c0,10.4,3.3,18.9,10,25.6s15.2,10,25.6,10h213.8c10.4,0,18.9-3.3,25.6-10S1038.5,446.3,1038.5,435.9z
		 M1751,899.1c0,155.1-38.2,298.2-114.7,429.2s-180.2,234.7-311.2,311.2s-274.1,114.7-429.2,114.7s-298.2-38.2-429.2-114.7
		s-234.7-180.2-311.2-311.2S41,1054.2,41,899.1s38.2-298.2,114.7-429.2s180.2-234.7,311.2-311.2S740.9,44,896,44
		s298.2,38.2,429.2,114.7s234.7,180.2,311.2,311.2S1751,743.9,1751,899.1z"/>
</g>
</svg>
