<svg version="1.1" id="Layer_1" xmlns="http://www.w3.org/2000/svg" x="0px" y="0px"
     viewBox="0 0 1792 1792" style="enable-background:new 0 0 1792 1792;" xml:space="preserve">
<path d="M256,1312v192c0,8.7-3.2,16.2-9.5,22.5s-13.8,9.5-22.5,9.5H32c-8.7,0-16.2-3.2-22.5-9.5S0,1512.7,0,1504v-192
	c0-8.7,3.2-16.2,9.5-22.5s13.8-9.5,22.5-9.5h192c8.7,0,16.2,3.2,22.5,9.5S256,1303.3,256,1312z M256,928v192
	c0,8.7-3.2,16.2-9.5,22.5s-13.8,9.5-22.5,9.5H32c-8.7,0-16.2-3.2-22.5-9.5S0,1128.7,0,1120V928c0-8.7,3.2-16.2,9.5-22.5
	S23.3,896,32,896h192c8.7,0,16.2,3.2,22.5,9.5S256,919.3,256,928z M256,544v192c0,8.7-3.2,16.2-9.5,22.5S232.7,768,224,768H32
	c-8.7,0-16.2-3.2-22.5-9.5S0,744.7,0,736V544c0-8.7,3.2-16.2,9.5-22.5S23.3,512,32,512h192c8.7,0,16.2,3.2,22.5,9.5
	S256,535.3,256,544z M1792,1312v192c0,8.7-3.2,16.2-9.5,22.5s-13.8,9.5-22.5,9.5H416c-8.7,0-16.2-3.2-22.5-9.5s-9.5-13.8-9.5-22.5
	v-192c0-8.7,3.2-16.2,9.5-22.5s13.8-9.5,22.5-9.5h1344c8.7,0,16.2,3.2,22.5,9.5S1792,1303.3,1792,1312z M256,160v192
	c0,8.7-3.2,16.2-9.5,22.5S232.7,384,224,384H32c-8.7,0-16.2-3.2-22.5-9.5S0,360.7,0,352V160c0-8.7,3.2-16.2,9.5-22.5
	S23.3,128,32,128h192c8.7,0,16.2,3.2,22.5,9.5S256,151.3,256,160z M1792,928v192c0,8.7-3.2,16.2-9.5,22.5s-13.8,9.5-22.5,9.5H416
	c-8.7,0-16.2-3.2-22.5-9.5s-9.5-13.8-9.5-22.5V928c0-8.7,3.2-16.2,9.5-22.5s13.8-9.5,22.5-9.5h1344c8.7,0,16.2,3.2,22.5,9.5
	S1792,919.3,1792,928z M1792,544v192c0,8.7-3.2,16.2-9.5,22.5s-13.8,9.5-22.5,9.5H416c-8.7,0-16.2-3.2-22.5-9.5S384,744.7,384,736
	V544c0-8.7,3.2-16.2,9.5-22.5s13.8-9.5,22.5-9.5h1344c8.7,0,16.2,3.2,22.5,9.5S1792,535.3,1792,544z M1792,160v192
	c0,8.7-3.2,16.2-9.5,22.5s-13.8,9.5-22.5,9.5H416c-8.7,0-16.2-3.2-22.5-9.5S384,360.7,384,352V160c0-8.7,3.2-16.2,9.5-22.5
	s13.8-9.5,22.5-9.5h1344c8.7,0,16.2,3.2,22.5,9.5S1792,151.3,1792,160z"/>
</svg>
