<svg version="1.1" id="Layer_1" xmlns="http://www.w3.org/2000/svg" xmlns:xlink="http://www.w3.org/1999/xlink" x="0px" y="0px"
	 viewBox="0 0 1792 1792" style="enable-background:new 0 0 1792 1792;" xml:space="preserve">
<style type="text/css">
	.st0{fill:#90C845;}
	.st1{fill:#FFFFFF;}
</style>
<path class="st0" d="M1755.4,144.8H648.5l-1.6-1.6c-1.2,0.5-2.5,1-3.7,1.6H36.6C16.5,144.8,0,161.3,0,181.4v1166.1
	c0,20.1,16.5,36.6,36.6,36.6h437.5c-4.3,11.5-9.5,23-15.7,34.5c-9.1,16.7-16.2,29.7-21.5,38.7c-5.2,9.1-13.6,20.1-25.1,33
	c-11.5,12.9-19.7,21.8-24.6,26.7c-4.9,4.9-13.8,13.1-26.7,24.6s-21.1,19-24.6,22.5c-16.7,15.4-23.7,28.3-20.9,38.7
	c2.1,7.7,6.6,14,13.6,18.8c7,4.9,14.7,7,23,6.3c23.7-2.1,53.7-6.6,90-13.6c178-38.1,326.6-114.8,445.7-230.3h867.9
	c20.1,0,36.6-16.5,36.6-36.6V181.4C1792,161.3,1775.5,144.8,1755.4,144.8z"/>
<rect x="670.8" y="589.9" class="st1" width="930.5" height="125.1"/>
<rect x="670.8" y="799.2" class="st1" width="930.5" height="125.1"/>
<rect x="670.8" y="1006.5" class="st1" width="930.5" height="125.1"/>
</svg>
