<svg version="1.1" id="Layer_1" xmlns="http://www.w3.org/2000/svg" xmlns:xlink="http://www.w3.org/1999/xlink" x="0px" y="0px"
	 viewBox="0 0 1792 1792" style="enable-background:new 0 0 1792 1792;" xml:space="preserve">
<style type="text/css">
	.st0{fill:#4B4B4B;}
</style>
<path class="st0" d="M491,1536l91-91l-235-235l-91,91v107h128v128H491z M1014,608c0-14.7-7.3-22-22-22c-6.7,0-12.3,2.3-17,7
	l-542,542c-4.7,4.7-7,10.3-7,17c0,14.7,7.3,22,22,22c6.7,0,12.3-2.3,17-7l542-542C1011.7,620.3,1014,614.7,1014,608z M960,416
	l416,416l-832,832H128v-416L960,416z M1643,512c0,35.3-12.3,65.3-37,90l-166,166l-416-416l166-165c24-25.3,54-38,90-38
	c35.3,0,65.7,12.7,91,38l235,234C1630.7,447,1643,477.3,1643,512z"/>
</svg>
