<?xml version="1.0" encoding="utf-8"?>
<!-- Generator: Adobe Illustrator 22.1.0, SVG Export Plug-In . SVG Version: 6.00 Build 0)  -->
<svg version="1.1" id="Layer_1" xmlns="http://www.w3.org/2000/svg" xmlns:xlink="http://www.w3.org/1999/xlink" x="0px" y="0px"
	 viewBox="0 0 100 100" style="enable-background:new 0 0 100 100;" xml:space="preserve">
<style type="text/css">
	.st0{fill:none;stroke:#BE1E2D;stroke-width:2.8362;stroke-miterlimit:10;}
	.st1{fill:#BE1E2D;}
</style>
<g>
	<path class="st0" d="M78.1,88.4H21.3c-1.1,0-2.1-0.9-2.1-2.1v-22h61v22C80.2,87.5,79.3,88.4,78.1,88.4z"/>
	<path class="st0" d="M62.5,9H21.3c-1.1,0-2.1,0.9-2.1,2.7V87c0,0.5,0.9,1.4,2.1,1.4h56.8c1.1,0,2.1-0.9,2.1-1.4V27.4
		c0-1-0.1-1.3-0.4-1.5L63.4,9.4C63.1,9.1,62.8,9,62.5,9z"/>
	<path class="st0" d="M63.2,11v15h15c0.6,0,1-0.8,0.5-1.2L64.4,10.5C64,10,63.2,10.3,63.2,11z"/>
	<path class="st1" d="M34.7,84.2h-2.3V69.9h4.1c0.6,0,1.2,0.1,1.8,0.3c0.6,0.2,1.1,0.5,1.6,0.9s0.9,0.9,1.1,1.4
		c0.3,0.5,0.4,1.2,0.4,1.9c0,0.7-0.1,1.4-0.4,2c-0.2,0.6-0.6,1.1-1,1.5s-1,0.7-1.6,0.9c-0.6,0.2-1.3,0.3-2.1,0.3h-1.7v5.1H34.7z
		 M34.7,71.6v5.7h2.1c0.3,0,0.6,0,0.8-0.1c0.3-0.1,0.5-0.3,0.8-0.5c0.2-0.2,0.4-0.5,0.6-0.9c0.1-0.4,0.2-0.9,0.2-1.5
		c0-0.2,0-0.5-0.1-0.8s-0.2-0.6-0.4-0.9s-0.5-0.5-0.8-0.7c-0.4-0.2-0.8-0.3-1.4-0.3C36.5,71.6,34.7,71.6,34.7,71.6z"/>
	<path class="st1" d="M55.7,76.6c0,1.2-0.1,2.2-0.4,3c-0.3,0.8-0.6,1.5-1,2.1s-0.8,1-1.3,1.3s-1,0.6-1.4,0.7
		c-0.5,0.2-0.9,0.3-1.2,0.3c-0.4,0-0.7,0.1-0.8,0.1h-5.4V69.9h4.3c1.2,0,2.3,0.2,3.2,0.6s1.7,0.9,2.3,1.5s1,1.4,1.3,2.2
		C55.6,74.9,55.7,75.8,55.7,76.6z M48.8,82.5c1.6,0,2.7-0.5,3.4-1.5s1-2.5,1-4.4c0-0.6-0.1-1.2-0.2-1.8c-0.1-0.6-0.4-1.1-0.8-1.6
		c-0.4-0.5-1-0.9-1.7-1.1c-0.7-0.3-1.6-0.4-2.7-0.4h-1.4v10.8H48.8z"/>
	<path class="st1" d="M61.4,71.6v4.5h6v1.6h-6v6.4H59V69.9h9v1.8h-6.6V71.6z"/>
	<path class="st1" d="M37.7,56.3L37.7,56.3c-0.5,0-1-0.2-1.4-0.5c-1.5-1.1-1.7-2.3-1.6-3.2c0.3-2.3,3.1-4.7,8.5-7.2
		c2.1-4.7,4.2-10.4,5.4-15.2c-1.4-3.1-2.8-7.1-1.8-9.4c0.4-0.8,0.8-1.5,1.6-1.7c0.3-0.1,1.1-0.2,1.4-0.2c0.7,0,1.3,0.9,1.8,1.5
		c0.4,0.5,1.4,1.7-0.5,9.6c1.9,3.9,4.6,8,7.2,10.7c1.9-0.3,3.5-0.5,4.8-0.5c2.2,0,3.6,0.5,4.1,1.6c0.5,0.9,0.3,1.9-0.6,3.1
		c-0.8,1.1-1.9,1.7-3.1,1.7c-1.7,0-3.7-1.1-6-3.2c-4,0.8-8.7,2.3-12.5,4c-1.2,2.5-2.3,4.5-3.4,6C40.2,55.3,38.9,56.3,37.7,56.3z
		 M41.5,49c-3,1.7-4.3,3.1-4.4,3.9c0,0.1-0.1,0.5,0.6,1C37.9,53.8,39.2,53.2,41.5,49z M60.8,42.7C62,43.6,62.2,44,63,44
		c0.3,0,1.3,0,1.7-0.6c0.2-0.3,0.3-0.5,0.3-0.6c-0.2-0.1-0.4-0.3-1.7-0.3C62.7,42.5,61.8,42.6,60.8,42.7z M50.2,33.4
		c-1,3.5-2.4,7.3-3.8,10.7c3-1.2,6.2-2.2,9.2-2.9C53.7,39,51.8,36.2,50.2,33.4z M49.4,21.4c-0.1,0-1.9,2.5,0.1,4.6
		C50.8,22.9,49.4,21.3,49.4,21.4z"/>
</g>
</svg>
