<?xml version="1.0" encoding="utf-8"?>
<!-- Generator: Adobe Illustrator 22.1.0, SVG Export Plug-In . SVG Version: 6.00 Build 0)  -->
<svg version="1.1" id="Layer_1" xmlns="http://www.w3.org/2000/svg" xmlns:xlink="http://www.w3.org/1999/xlink" x="0px" y="0px"
	 viewBox="0 0 100 100" style="enable-background:new 0 0 100 100;" xml:space="preserve">
<style type="text/css">
	.st0{fill:none;stroke:#F7941D;stroke-width:2.8362;stroke-miterlimit:10;}
	.st1{fill:none;stroke:#F7941D;stroke-width:2.8362;stroke-linecap:round;stroke-miterlimit:10;}
	.st2{fill:none;stroke:#F7941D;stroke-width:2.8362;stroke-linecap:round;stroke-miterlimit:10;stroke-dasharray:0,4.2543;}
</style>
<g>
	<circle class="st0" cx="49.7" cy="50.1" r="29.8"/>
	<line class="st1" x1="49.7" y1="24.6" x2="49.7" y2="27.4"/>
	<line class="st1" x1="49.7" y1="72.8" x2="49.7" y2="75.7"/>
	<line class="st1" x1="75.3" y1="50.1" x2="72.4" y2="50.1"/>
	<line class="st1" x1="27" y1="50.1" x2="24.2" y2="50.1"/>
	<circle class="st1" cx="49.7" cy="48.7" r="4.3"/>
	<line class="st1" x1="49.7" y1="44.5" x2="49.7" y2="35.9"/>
	<line class="st1" x1="46.7" y1="51.7" x2="34.1" y2="64.3"/>
	<path class="st1" d="M21.4,20.4C28.7,13.3,38.7,9,49.7,9c22.7,0,41.1,18.4,41.1,41.1"/>
	<polyline class="st1" points="32.7,20.3 21.4,20.3 21.4,9 	"/>
	<path class="st2" d="M90.9,50.1c0,22.7-18.4,41.1-41.1,41.1S8.6,72.8,8.6,50.1"/>
</g>
</svg>
