<?xml version="1.0" encoding="utf-8"?>
<!-- Generator: Adobe Illustrator 22.1.0, SVG Export Plug-In . SVG Version: 6.00 Build 0)  -->
<svg version="1.1" id="Layer_1" xmlns="http://www.w3.org/2000/svg" xmlns:xlink="http://www.w3.org/1999/xlink" x="0px" y="0px"
	 viewBox="0 0 100 100" style="enable-background:new 0 0 100 100;" xml:space="preserve">
<style type="text/css">
	.st0{fill:none;stroke:#1B75BC;stroke-width:2.8362;stroke-miterlimit:10;}
	.st1{fill:#1B75BC;}
	.st2{fill:none;stroke:#1B75BC;stroke-width:2.8362;stroke-linecap:round;stroke-miterlimit:10;}
</style>
<g>
	<path class="st0" d="M78.1,89.8H21.3c-1.1,0-2.1-0.9-2.1-2.1v-22h61v22C80.2,88.9,79.3,89.8,78.1,89.8z"/>
	<path class="st0" d="M62.5,10.4H21.3c-1.1,0-2.1,0.9-2.1,2.7v75.3c0,0.5,0.9,1.4,2.1,1.4h56.8c1.1,0,2.1-0.9,2.1-1.4V28.8
		c0-1-0.1-1.3-0.4-1.5L63.4,10.8C63.1,10.5,62.8,10.4,62.5,10.4z"/>
	<path class="st0" d="M63.2,12.4v15h15c0.6,0,1-0.8,0.5-1.2L64.4,11.9C64,11.4,63.2,11.7,63.2,12.4z"/>
	<path class="st1" d="M43.3,78c0,1.2-0.1,2.2-0.4,3c-0.3,0.8-0.6,1.5-1,2.1s-0.8,1-1.3,1.3s-1,0.6-1.4,0.7c-0.5,0.2-0.9,0.3-1.2,0.3
		c-0.4,0-0.7,0.1-0.8,0.1h-5.4V71.3h4.3c1.2,0,2.3,0.2,3.2,0.6s1.7,0.9,2.3,1.5s1,1.4,1.3,2.2C43.2,76.4,43.3,77.2,43.3,78z
		 M36.4,83.9c1.6,0,2.7-0.5,3.4-1.5s1-2.5,1-4.4c0-0.6-0.1-1.2-0.2-1.8c-0.1-0.6-0.4-1.1-0.8-1.6c-0.4-0.5-1-0.9-1.7-1.1
		c-0.7-0.3-1.6-0.4-2.7-0.4H34v10.8H36.4z"/>
	<path class="st1" d="M57.5,78.4c0,1.2-0.2,2.3-0.5,3.2c-0.3,0.9-0.7,1.7-1.3,2.3c-0.5,0.6-1.2,1.1-1.9,1.4s-1.5,0.5-2.4,0.5
		s-1.6-0.2-2.4-0.5s-1.3-0.8-1.9-1.4c-0.5-0.6-1-1.4-1.3-2.3s-0.5-2-0.5-3.2s0.2-2.3,0.5-3.2c0.3-0.9,0.7-1.7,1.3-2.3
		c0.5-0.6,1.2-1.1,1.9-1.4s1.5-0.5,2.4-0.5s1.6,0.2,2.4,0.5c0.7,0.3,1.3,0.8,1.9,1.4c0.5,0.6,1,1.4,1.3,2.3
		C57.3,76.1,57.5,77.2,57.5,78.4z M51.5,83.8c0.5,0,0.9-0.1,1.4-0.3c0.4-0.2,0.8-0.5,1.2-0.9c0.3-0.4,0.6-1,0.8-1.7s0.3-1.5,0.3-2.5
		s-0.1-1.8-0.3-2.5s-0.4-1.2-0.8-1.7c-0.3-0.4-0.7-0.8-1.1-1c-0.4-0.2-0.9-0.3-1.3-0.3c-0.5,0-0.9,0.1-1.4,0.3
		c-0.4,0.2-0.8,0.5-1.2,0.9c-0.3,0.4-0.6,1-0.8,1.7S48,77.4,48,78.4s0.1,1.8,0.3,2.5s0.4,1.2,0.8,1.7s0.7,0.7,1.1,1
		C50.6,83.7,51,83.8,51.5,83.8z"/>
	<path class="st1" d="M70.4,84.1c-0.5,0.5-1.1,0.9-1.8,1.2c-0.7,0.3-1.4,0.4-2.2,0.4c-0.9,0-1.6-0.2-2.4-0.5
		c-0.7-0.3-1.3-0.8-1.9-1.4c-0.5-0.6-1-1.4-1.3-2.3s-0.5-2-0.5-3.2s0.2-2.3,0.5-3.2c0.3-0.9,0.7-1.7,1.3-2.3
		c0.5-0.6,1.2-1.1,1.9-1.4c0.7-0.3,1.5-0.5,2.3-0.5s1.5,0.1,2.2,0.4s1.3,0.6,1.8,1.2L68.8,74c-0.3-0.4-0.7-0.6-1.1-0.8
		C67.4,73.1,67,73,66.5,73s-0.9,0.1-1.4,0.3c-0.4,0.2-0.8,0.5-1.2,0.9c-0.3,0.4-0.6,1-0.8,1.7s-0.3,1.5-0.3,2.5s0.1,1.8,0.3,2.5
		s0.4,1.2,0.8,1.7c0.3,0.4,0.7,0.7,1.1,1c0.4,0.2,0.9,0.3,1.3,0.3s0.9-0.1,1.3-0.3c0.4-0.2,0.8-0.4,1.1-0.8L70.4,84.1z"/>
	<line class="st2" x1="27.7" y1="27.4" x2="36.3" y2="27.4"/>
	<line class="st2" x1="27.7" y1="34.5" x2="40.5" y2="34.5"/>
	<line class="st2" x1="46.2" y1="34.5" x2="46.2" y2="34.5"/>
	<line class="st2" x1="51.9" y1="34.5" x2="63.2" y2="34.5"/>
	<line class="st2" x1="27.7" y1="55.8" x2="27.7" y2="55.8"/>
	<line class="st2" x1="33.4" y1="55.8" x2="44.8" y2="55.8"/>
	<line class="st2" x1="68.9" y1="34.5" x2="71.7" y2="34.5"/>
	<line class="st2" x1="27.7" y1="41.6" x2="58.9" y2="41.6"/>
	<line class="st2" x1="63.2" y1="41.6" x2="71.7" y2="41.6"/>
	<line class="st2" x1="27.7" y1="48.7" x2="33.4" y2="48.7"/>
	<line class="st2" x1="39.1" y1="48.7" x2="53.3" y2="48.7"/>
	<line class="st2" x1="58.9" y1="48.7" x2="71.7" y2="48.7"/>
</g>
</svg>
