<?xml version="1.0" encoding="utf-8"?>
<!-- Generator: Adobe Illustrator 22.1.0, SVG Export Plug-In . SVG Version: 6.00 Build 0)  -->
<svg version="1.1" id="Layer_1" xmlns="http://www.w3.org/2000/svg" xmlns:xlink="http://www.w3.org/1999/xlink" x="0px" y="0px"
	 viewBox="0 0 100 100" style="enable-background:new 0 0 100 100;" xml:space="preserve">
<style type="text/css">
	.st0{fill:none;stroke:#58595B;stroke-width:2.8362;stroke-miterlimit:10;}
	.st1{fill:none;stroke:#58595B;stroke-width:2.8362;stroke-linecap:round;stroke-miterlimit:10;}
	.st2{fill:none;stroke:#58595B;stroke-width:2.8362;stroke-linecap:round;stroke-linejoin:round;stroke-miterlimit:10;}
</style>
<g>
	<polygon class="st0" points="78.1,9 78.1,18.9 78.1,33.1 21.4,33.1 21.4,9 	"/>
	<polyline class="st1" points="78.1,58.6 78.1,91.2 21.4,91.2 21.4,58.6 	"/>
	<circle class="st0" cx="78.1" cy="45.9" r="5.7"/>
	<line class="st2" x1="32.7" y1="70" x2="66.7" y2="70"/>
	<line class="st2" x1="32.7" y1="77.1" x2="66.7" y2="77.1"/>
	<line class="st2" x1="8.6" y1="58.6" x2="90.9" y2="58.6"/>
	<polyline class="st1" points="78.1,58.6 78.1,82.7 82.3,82.7 82.3,78.5 90.9,78.5 90.9,33.1 8.6,33.1 8.6,78.5 17.1,78.5 
		17.1,82.7 21.4,82.7 21.4,58.6 	"/>
	<line class="st1" x1="17.1" y1="78.5" x2="17.1" y2="71.4"/>
	<line class="st1" x1="82.3" y1="78.5" x2="82.3" y2="71.4"/>
</g>
</svg>
