<?xml version="1.0" encoding="utf-8"?>
<!-- Generator: Adobe Illustrator 22.1.0, SVG Export Plug-In . SVG Version: 6.00 Build 0)  -->
<svg version="1.1" id="Layer_1" xmlns="http://www.w3.org/2000/svg" xmlns:xlink="http://www.w3.org/1999/xlink" x="0px" y="0px"
	 viewBox="0 0 100 100" style="enable-background:new 0 0 100 100;" xml:space="preserve">
<style type="text/css">
	.st0{fill:none;stroke:#425F10;stroke-width:2.8362;stroke-linecap:round;stroke-miterlimit:10;}
	.st1{fill:none;stroke:#425F10;stroke-width:2.8362;stroke-miterlimit:10;}
</style>
<g>
	<line class="st0" x1="23.8" y1="40.2" x2="59.3" y2="40.2"/>
	<line class="st0" x1="23.8" y1="28.9" x2="38" y2="28.9"/>
	<line class="st0" x1="23.8" y1="51.5" x2="59.3" y2="51.5"/>
	<line class="st0" x1="23.8" y1="62.9" x2="47.9" y2="62.9"/>
	<line class="st0" x1="23.8" y1="74.2" x2="43.7" y2="74.2"/>
	<polyline class="st1" points="53.6,9 53.6,28.9 73.4,28.9 	"/>
	<polyline class="st1" points="73.4,55.8 73.4,28.9 53.6,9 9.6,9 9.6,91.2 49.3,91.2 	"/>
	<path class="st1" d="M67.4,86.8l-11,3l3-11L81,57.2c1.1-1.1,2.9-1.1,4,0l4,4c1.1,1.1,1.1,2.9,0,4L67.4,86.8z"/>
	<line class="st1" x1="84" y1="70.3" x2="76" y2="62.3"/>
	<line class="st1" x1="59.4" y1="78.8" x2="67.4" y2="86.8"/>
	<line class="st0" x1="56.4" y1="89.8" x2="55.4" y2="90.8"/>
</g>
</svg>
