<?xml version="1.0" encoding="utf-8"?>
<!-- Generator: Adobe Illustrator 22.1.0, SVG Export Plug-In . SVG Version: 6.00 Build 0)  -->
<svg version="1.1" id="Layer_1" xmlns="http://www.w3.org/2000/svg" xmlns:xlink="http://www.w3.org/1999/xlink" x="0px" y="0px"
	 viewBox="0 0 150 150" style="enable-background:new 0 0 150 150;" xml:space="preserve">
<style type="text/css">
	.st0{fill:#90C845;}
</style>
<path class="st0" d="M136,16H13.6c-3.7,0-6.7,3-6.7,6.7v104.7c0,3.7,3,6.7,6.7,6.7H136c3.7,0,6.7-3,6.7-6.7V22.7
	C142.6,19,139.6,16,136,16z M47.3,22.6c2.6,0,4.6,2.1,4.6,4.6s-2.1,4.6-4.6,4.6c-2.6,0-4.6-2.1-4.6-4.6S44.8,22.6,47.3,22.6z
	 M32.6,22.6c2.6,0,4.6,2.1,4.6,4.6s-2.1,4.6-4.6,4.6c-2.6,0-4.6-2.1-4.6-4.6S30,22.6,32.6,22.6z M13.1,27.3c0-2.6,2.1-4.6,4.6-4.6
	c2.6,0,4.6,2.1,4.6,4.6s-2.1,4.6-4.6,4.6C15.2,31.9,13.1,29.8,13.1,27.3z M135.6,126.5H14V36.8h121.5V126.5z"/>
<path class="st0" d="M83.2,108.5l21.5-21.5c3.1-3.1,3.1-8.2,0-11.4L81.8,52.8c-3.1-3.1-8.2-3.1-11.4,0c-1.6,1.6-2.4,3.6-2.4,5.7
	c0,2.1,0.8,4.1,2.4,5.7l8.5,8.5H50.6c-4.4,0-8,3.6-8,8c0,4.4,3.6,8,8,8h29.7l-8.5,8.5c-3.1,3.1-3.1,8.2,0,11.4
	C74.9,111.7,80,111.7,83.2,108.5z"/>
</svg>
