<?xml version="1.0" encoding="utf-8"?>
<!-- Generator: Adobe Illustrator 21.0.2, SVG Export Plug-In . SVG Version: 6.00 Build 0)  -->
<svg version="1.1" id="Layer_1" xmlns="http://www.w3.org/2000/svg" xmlns:xlink="http://www.w3.org/1999/xlink" x="0px" y="0px"
	 viewBox="0 0 75 75" style="enable-background:new 0 0 75 75;" xml:space="preserve">
<style type="text/css">
	.st0{fill-rule:evenodd;clip-rule:evenodd;fill:#4A4A4A;}
	.st1{fill:#4A4A4A;}
</style>
<path class="st0" d="M133.6,3c1.4,0.1,3.4,0.4,4.4,1c-13.4,13.4-26.7,26.8-40.1,40.2c0,0-0.1,0-0.1,0c-1.9,0.1-3.8,0.2-5.7,0.3
	C105.9,30.8,119.7,16.9,133.6,3z M142,6c2.4,2.2,4.9,4.4,7.3,6.6c-4.8,4.8-9.5,9.5-14.3,14.3c-9,9-18,18.1-27,27.1
	c-1.4-0.2-5.1-0.6-5.9-1.5c-0.4-1.8-0.8-3.6-1.3-5.3C114.6,33.5,128.3,19.7,142,6z M151.4,16.7c0.6,0.7,1.3,3.3,0.8,4.5
	c-13.6,13.7-27.3,27.4-40.9,41.1c0,0-0.1,0-0.1,0c-0.1-1.7-0.2-3.4-0.3-5.1C124.4,43.7,137.9,30.2,151.4,16.7z M94.6,48.7
	c0.8,0,1.6,0,2.4,0c0.5,2.6,1,5.1,1.5,7.7c2.7,0.6,5.5,1.2,8.2,1.7c0.1,2.5,0.2,5,0.3,7.5c-4.1,1.3-8.2,2.6-12.3,3.8
	c-1.8-3.6-5.3-7.9-9.3-9.2c1.3-3.8,2.6-7.6,3.8-11.4C91.1,48.8,92.9,48.8,94.6,48.7z M84.2,64.3c2.7,1.1,5.3,3.8,6.6,6.4
	c-1.2,0.4-2.5,0.8-3.7,1.2C81.7,72.9,83.1,66.9,84.2,64.3z"/>
<path class="st1" d="M71.3,34.3C55.3,14.8,38.6,15.6,37.8,15.6C37,15.6,20.3,14.8,4.2,34.3c0.2-0.2-1.1,1.3-1.1,3.2c0,0,0,0,0,0
	c0,0,0,0,0,0c0,1.8,1.2,3.3,1.1,3.1c16,19.6,32.7,18.8,33.6,18.7c0.8,0.1,17.5,0.9,33.6-18.7c-0.2,0.2,1.1-1.3,1.1-3.1c0,0,0,0,0,0
	c0,0,0,0,0,0C72.5,35.7,71.2,34.2,71.3,34.3z M37.8,52.5c-8.3,0-15.1-6.7-15.1-15c0-8.3,6.7-15,15.1-15c8.3,0,15,6.7,15,15
	C52.8,45.8,46.1,52.5,37.8,52.5z M44.6,36.4c-3.2,0-5.7-2.6-5.7-5.7c0-0.9,0.2-1.8,0.6-2.6c-0.6-0.1-1.1-0.2-1.7-0.2
	c-5.3,0-9.6,4.3-9.6,9.6c0,5.3,4.3,9.6,9.6,9.6c5.3,0,9.6-4.3,9.6-9.6c0-0.6-0.1-1.2-0.2-1.7C46.4,36.2,45.5,36.4,44.6,36.4z"/>
</svg>
