<svg version="1.1" id="Layer_1" xmlns="http://www.w3.org/2000/svg" xmlns:xlink="http://www.w3.org/1999/xlink" x="0px" y="0px"
	 viewBox="0 0 1792 1792" style="enable-background:new 0 0 1792 1792;" xml:space="preserve">
<style type="text/css">
	.st0{fill:#4B4B4B;}
</style>
<path class="st0" d="M1277,1122c0-17.3-6.3-32.3-19-45l-181-181l181-181c12.7-12.7,19-27.7,19-45c0-18-6.3-33.3-19-46l-90-90
	c-12.7-12.7-28-19-46-19c-17.3,0-32.3,6.3-45,19L896,715L715,534c-12.7-12.7-27.7-19-45-19c-18,0-33.3,6.3-46,19l-90,90
	c-12.7,12.7-19,28-19,46c0,17.3,6.3,32.3,19,45l181,181l-181,181c-12.7,12.7-19,27.7-19,45c0,18,6.3,33.3,19,46l90,90
	c12.7,12.7,28,19,46,19c17.3,0,32.3-6.3,45-19l181-181l181,181c12.7,12.7,27.7,19,45,19c18,0,33.3-6.3,46-19l90-90
	C1270.7,1155.3,1277,1140,1277,1122z M1664,896c0,139.3-34.3,267.8-103,385.5s-161.8,210.8-279.5,279.5s-246.2,103-385.5,103
	s-267.8-34.3-385.5-103S299.7,1399.2,231,1281.5S128,1035.3,128,896s34.3-267.8,103-385.5S392.8,299.7,510.5,231S756.7,128,896,128
	s267.8,34.3,385.5,103s210.8,161.8,279.5,279.5S1664,756.7,1664,896z"/>
</svg>
