<?xml version="1.0" encoding="utf-8"?>
<!-- Generator: Adobe Illustrator 21.0.0, SVG Export Plug-In . SVG Version: 6.00 Build 0)  -->
<svg version="1.1" id="Layer_1" xmlns="http://www.w3.org/2000/svg" x="0px" y="0px"
     viewBox="0 0 1792 1792" style="enable-background:new 0 0 1792 1792;" xml:space="preserve">
<style type="text/css">
	.st0{fill:#4B4A4B;}
</style>
<path class="st0" d="M448,1536h896v-256H448V1536z M448,896h896V512h-160c-26.7,0-49.3-9.3-68-28s-28-41.3-28-68V256H448V896z
	 M1600,960c0-17.3-6.3-32.3-19-45s-27.7-19-45-19s-32.3,6.3-45,19s-19,27.7-19,45s6.3,32.3,19,45s27.7,19,45,19s32.3-6.3,45-19
	S1600,977.3,1600,960z M1728,960v416c0,8.7-3.2,16.2-9.5,22.5s-13.8,9.5-22.5,9.5h-224v160c0,26.7-9.3,49.3-28,68s-41.3,28-68,28
	H416c-26.7,0-49.3-9.3-68-28s-28-41.3-28-68v-160H96c-8.7,0-16.2-3.2-22.5-9.5S64,1384.7,64,1376V960c0-52.7,18.8-97.8,56.5-135.5
	S203.3,768,256,768h64V224c0-26.7,9.3-49.3,28-68s41.3-28,68-28h672c26.7,0,56,6.7,88,20s57.3,29.3,76,48l152,152
	c18.7,18.7,34.7,44,48,76s20,61.3,20,88v256h64c52.7,0,97.8,18.8,135.5,56.5S1728,907.3,1728,960z"/>
</svg>
